/usr/bin/start-video-rec.sh: line 70: kill: (1284) - No such process
ffmpeg version 2.8.15-0ubuntu0.16.04.1 Copyright (c) 2000-2018 the FFmpeg developers
  built with gcc 5.4.0 (Ubuntu 5.4.0-6ubuntu1~16.04.10) 20160609
  configuration: --prefix=/usr --extra-version=0ubuntu0.16.04.1 --build-suffix=-ffmpeg --toolchain=hardened --libdir=/usr/lib/x86_64-linux-gnu --incdir=/usr/include/x86_64-linux-gnu --cc=cc --cxx=g++ --enable-gpl --enable-shared --disable-stripping --disable-decoder=libopenjpeg --disable-decoder=libschroedinger --enable-avresample --enable-avisynth --enable-gnutls --enable-ladspa --enable-libass --enable-libbluray --enable-libbs2b --enable-libcaca --enable-libcdio --enable-libflite --enable-libfontconfig --enable-libfreetype --enable-libfribidi --enable-libgme --enable-libgsm --enable-libmodplug --enable-libmp3lame --enable-libopenjpeg --enable-libopus --enable-libpulse --enable-librtmp --enable-libschroedinger --enable-libshine --enable-libsnappy --enable-libsoxr --enable-libspeex --enable-libssh --enable-libtheora --enable-libtwolame --enable-libvorbis --enable-libvpx --enable-libwavpack --enable-libwebp --enable-libx265 --enable-libxvid --enable-libzvbi --enable-openal --enable-opengl --enable-x11grab --enable-libdc1394 --enable-libiec61883 --enable-libzmq --enable-frei0r --enable-libx264 --enable-libopencv
  libavutil      54. 31.100 / 54. 31.100
  libavcodec     56. 60.100 / 56. 60.100
  libavformat    56. 40.101 / 56. 40.101
  libavdevice    56.  4.100 / 56.  4.100
  libavfilter     5. 40.101 /  5. 40.101
  libavresample   2.  1.  0 /  2.  1.  0
  libswscale      3.  1.101 /  3.  1.101
  libswresample   1.  2.101 /  1.  2.101
  libpostproc    53.  3.100 / 53.  3.100
Input #0, matroska,webm, from '/home/seluser/videos/vid_chrome_or_firefox_40002.mkv':
  Metadata:
    ENCODER         : Lavf56.40.101
  Duration: 00:00:38.50, start: 0.000000, bitrate: 53 kb/s
    Stream #0:0: Video: h264 (Constrained Baseline), yuv420p, 1920x1080, SAR 1:1 DAR 16:9, 10 fps, 10 tbr, 1k tbn, 20 tbc (default)
    Metadata:
      ENCODER         : Lavc56.60.100 libx264
      DURATION        : 00:00:38.500000000
[libx264 @ 0xb16300] using SAR=1/1
[libx264 @ 0xb16300] using cpu capabilities: MMX2 SSE2Fast SSSE3 SSE4.2 AVX FMA3 AVX2 LZCNT BMI2
[libx264 @ 0xb16300] profile Constrained Baseline, level 4.0
[libx264 @ 0xb16300] 264 - core 148 r2643 5c65704 - H.264/MPEG-4 AVC codec - Copyleft 2003-2015 - http://www.videolan.org/x264.html - options: cabac=0 ref=1 deblock=0:0:0 analyse=0:0 me=dia subme=0 psy=1 psy_rd=1.00:0.00 mixed_ref=0 me_range=16 chroma_me=1 trellis=0 8x8dct=0 cqm=0 deadzone=21,11 fast_pskip=1 chroma_qp_offset=0 threads=3 lookahead_threads=1 sliced_threads=0 nr=0 decimate=1 interlaced=0 bluray_compat=0 constrained_intra=0 bframes=0 weightp=0 keyint=250 keyint_min=10 scenecut=0 intra_refresh=0 rc=crf mbtree=0 crf=23.0 qcomp=0.60 qpmin=0 qpmax=69 qpstep=4 ip_ratio=1.40 aq=0
Output #0, mp4, to '/home/seluser/videos/vid_chrome_or_firefox_40002.mp4':
  Metadata:
    encoder         : Lavf56.40.101
    Stream #0:0: Video: h264 (libx264) ([33][0][0][0] / 0x0021), yuv420p, 1920x1080 [SAR 1:1 DAR 16:9], q=-1--1, 10 fps, 10240 tbn, 10 tbc (default)
    Metadata:
      DURATION        : 00:00:38.500000000
      encoder         : Lavc56.60.100 libx264
Stream mapping:
  Stream #0:0 -> #0:0 (h264 (native) -> h264 (libx264))
Press [q] to stop, [?] for help
frame=   10 fps=0.0 q=10.0 size=      71kB time=00:00:00.60 bitrate= 974.3kbits/s dup=6 drop=0    
frame=   18 fps= 17 q=9.0 size=      94kB time=00:00:01.40 bitrate= 551.5kbits/s dup=11 drop=0    
frame=   23 fps= 12 q=9.0 size=      96kB time=00:00:01.90 bitrate= 415.4kbits/s dup=14 drop=0    
frame=   31 fps= 12 q=9.0 size=      97kB time=00:00:02.70 bitrate= 293.9kbits/s dup=18 drop=0    
frame=   38 fps= 12 q=9.0 size=      97kB time=00:00:03.40 bitrate= 234.4kbits/s dup=20 drop=0    
frame=   41 fps=9.9 q=9.0 size=      97kB time=00:00:03.70 bitrate= 215.7kbits/s dup=21 drop=0    
frame=   45 fps=9.4 q=9.0 size=      98kB time=00:00:04.10 bitrate= 195.0kbits/s dup=22 drop=0    
frame=   51 fps=9.5 q=9.0 size=      98kB time=00:00:04.70 bitrate= 170.6kbits/s dup=23 drop=0    
frame=   61 fps= 10 q=9.0 size=      98kB time=00:00:05.70 bitrate= 141.5kbits/s dup=23 drop=0    
frame=   70 fps= 11 q=10.0 size=     112kB time=00:00:06.60 bitrate= 139.4kbits/s dup=25 drop=0    
frame=   82 fps= 12 q=9.0 size=     126kB time=00:00:07.80 bitrate= 131.9kbits/s dup=25 drop=0    
frame=  101 fps= 13 q=10.0 size=     126kB time=00:00:09.70 bitrate= 106.7kbits/s dup=26 drop=0    
frame=  107 fps= 13 q=9.0 size=     139kB time=00:00:10.30 bitrate= 110.4kbits/s dup=26 drop=0    
frame=  115 fps= 13 q=9.0 size=     140kB time=00:00:11.10 bitrate= 103.5kbits/s dup=29 drop=0    
frame=  121 fps= 13 q=9.0 size=     141kB time=00:00:11.70 bitrate=  98.9kbits/s dup=29 drop=0    
frame=  136 fps= 14 q=9.0 size=     144kB time=00:00:13.20 bitrate=  89.3kbits/s dup=29 drop=0    
frame=  141 fps= 14 q=10.0 size=     146kB time=00:00:13.70 bitrate=  87.6kbits/s dup=30 drop=0    
frame=  144 fps= 13 q=9.0 size=     150kB time=00:00:14.00 bitrate=  87.9kbits/s dup=30 drop=0    
frame=  148 fps= 13 q=9.0 size=     151kB time=00:00:14.40 bitrate=  85.7kbits/s dup=30 drop=0    
frame=  151 fps= 12 q=9.0 size=     151kB time=00:00:14.70 bitrate=  84.1kbits/s dup=30 drop=0    
frame=  155 fps= 12 q=9.0 size=     151kB time=00:00:15.10 bitrate=  82.1kbits/s dup=30 drop=0    
frame=  164 fps= 12 q=9.0 size=     153kB time=00:00:16.00 bitrate=  78.2kbits/s dup=32 drop=0    
frame=  171 fps= 12 q=11.0 size=     160kB time=00:00:16.70 bitrate=  78.6kbits/s dup=33 drop=0    
frame=  175 fps= 12 q=9.0 size=     178kB time=00:00:17.10 bitrate=  85.1kbits/s dup=33 drop=0    
frame=  187 fps= 12 q=9.0 size=     179kB time=00:00:18.30 bitrate=  80.0kbits/s dup=33 drop=0    
frame=  197 fps= 13 q=9.0 size=     179kB time=00:00:19.30 bitrate=  76.0kbits/s dup=33 drop=0    
frame=  207 fps= 13 q=9.0 size=     192kB time=00:00:20.30 bitrate=  77.6kbits/s dup=35 drop=0    
frame=  216 fps= 13 q=9.0 size=     193kB time=00:00:21.20 bitrate=  74.7kbits/s dup=37 drop=0    
frame=  223 fps= 13 q=9.0 size=     194kB time=00:00:21.90 bitrate=  72.6kbits/s dup=37 drop=0    
frame=  236 fps= 13 q=9.0 size=     197kB time=00:00:23.20 bitrate=  69.4kbits/s dup=41 drop=0    
frame=  250 fps= 13 q=10.0 size=     246kB time=00:00:24.60 bitrate=  82.1kbits/s dup=46 drop=0    
frame=  256 fps= 13 q=-1.0 Lsize=     302kB time=00:00:25.60 bitrate=  96.7kbits/s dup=46 drop=0    
video:300kB audio:0kB subtitle:0kB other streams:0kB global headers:0kB muxing overhead: 0.599933%
[libx264 @ 0xb16300] frame I:2     Avg QP:13.50  size: 38418
[libx264 @ 0xb16300] frame P:254   Avg QP: 9.36  size:   907
[libx264 @ 0xb16300] mb I  I16..4: 100.0%  0.0%  0.0%
[libx264 @ 0xb16300] mb P  I16..4:  3.8%  0.0%  0.0%  P16..4:  0.5%  0.0%  0.0%  0.0%  0.0%    skip:95.7%
[libx264 @ 0xb16300] coded y,uvDC,uvAC intra: 1.8% 1.4% 1.3% inter: 0.2% 0.2% 0.1%
[libx264 @ 0xb16300] i16 v,h,dc,p: 96%  4%  0%  0%
[libx264 @ 0xb16300] i8c dc,h,v,p: 96%  3%  1%  0%
[libx264 @ 0xb16300] kb/s:95.97
Exiting normally, received signal 15.
